# xmcd CD database file
#
# Track frame offsets:
#	182
#	12040
#	40112
#	58132
#	108737
#	133265
#	138490
#	160615
#	215332
#	229762
#	239560
#
# Disc length: 4295 seconds
#
# Revision: 5
# Processed by: cddbd v1.5.2PL0 Copyright (c) Steve Scherf et al.
# Submitted via: CDex 1.99
#
DISCID=9910c50b
DTITLE=Rene Clemencic, Clemencic Consort - Troubadours - Cantigas de Santa Maria CD2
DYEAR=1995
DGENRE=Renaissance
TTITLE0=Bernart de Ventadorn (c.1125-?): Vida
TTITLE1=Bernart de Ventadorn (c.1125-?): Can l'erba
TTITLE2=Folquet de Marselha (c.1180-1231): Vida
TTITLE3=Folquet de Marselha (c.1180-1231): Sitot me soi
TTITLE4=Guilhem de Cabestanh (1162-1212): Vida
TTITLE5=Marcabrun (c.1150): Vida
TTITLE6=Marcabrun (c.1150): L'autrier jost'una sebissa
TTITLE7=Anonymus (c.1200): Novel amor
TTITLE8=Raimon de Miraval (c.1135-c.1216): Selh que non vol
TTITLE9=Jaufre Rudel (c.1150): Vida
TTITLE10=Jaufre Rudel (c.1150): Lanquan li jorn
EXTD=YEAR: 1995
EXTT0=
EXTT1=
EXTT2=
EXTT3=
EXTT4=
EXTT5=
EXTT6=
EXTT7=
EXTT8=
EXTT9=
EXTT10=
PLAYORDER=
